<svg xmlns="http://www.w3.org/2000/svg" xmlns:se="http://svg-edit.googlecode.com" xmlns:xlink="http://www.w3.org/1999/xlink" xmlns:dc="http://purl.org/dc/elements/1.1/" xmlns:cc="http://creativecommons.org/ns#" xmlns:rdf="http://www.w3.org/1999/02/22-rdf-syntax-ns#" xmlns:inkscape="http://www.inkscape.org/namespaces/inkscape" width="777" height="480">                                    <title>my vector image</title>                                    <!-- Created with Vector Paint - http://www.vectorpaint.yaks.com/ https://chrome.google.com/webstore/detail/hnbpdiengicdefcjecjbnjnoifekhgdo -->                                    <rect id="backgroundrect" width="0%" height="0%" x="0" y="0" fill="#FFFFFF" stroke="none"/>                                <g class="currentLayer"><title>Layer 1</title><path fill="#ffffff" stroke="#ffffff" stroke-width="0" stroke-linejoin="round" stroke-dashoffset="" fill-rule="nonzero" marker-start="" marker-mid="" marker-end="" d="M9.837312082301006,2.506752639026119 L9.837312082301006,2.506752639026119 C9.837312082301006,1.237113321183354 10.86058418108358,0.2078674334227658 12.12285410808349,0.2078674334227658 L13.161737394723318,0.2078674334227658 L13.161737394723318,0.2078674334227658 L18.148375698030485,0.2078674334227658 L27.498319923010495,0.2078674334227658 C28.104484884237248,0.2078674334227658 28.685821075478337,0.4500702410713354 29.114444333905475,0.8811952098487505 C29.543064914943358,1.312320178626154 29.78386328748759,1.8970509146455203 29.78386328748759,2.506752639026119 L29.78386328748759,8.253966310511775 L29.78386328748759,8.253966310511775 L29.78386328748759,11.702293461439476 L29.78386328748759,11.702293461439476 C29.78386328748759,12.97193343675956 28.760591858052386,14.0011786670428 27.498320592357775,14.0011786670428 L18.148376367377832,14.0011786670428 L11.63394875946142,19.846709523535704 L13.161738064070644,14.0011786670428 L12.122854777430813,14.0011786670428 C10.86058485043092,14.0011786670428 9.83731275164833,12.97193343675956 9.83731275164833,11.702293461439476 L9.83731275164833,11.702293461439476 L9.83731275164833,8.253966310511775 L9.83731275164833,8.253966310511775 L9.837312082301006,2.506752639026119 z" style="color: rgb(0, 0, 0);" class="" fill-opacity="1" stroke-opacity="1" id="svg_3"/><path fill="#ffffff" stroke="#ffffff" stroke-width="0" stroke-linejoin="round" stroke-dashoffset="" fill-rule="nonzero" marker-start="" marker-mid="" marker-end="" id="svg_4" d="M66.63031311389186,9.992873229282138 L69.02489132365915,8.7265770232693 C68.97782657265438,8.257201533546878 68.88687712139597,7.801818267095221 68.7730313047814,7.354703132576426 L66.11323686302045,6.98645325649323 C65.8830011891997,6.431852406848332 65.5789883381323,5.917320196569969 65.22155063457814,5.445400666252771 L66.23535081156922,2.9516048732962843 C65.90208149366185,2.6266036873232403 65.54209974951024,2.330222958040495 65.16303770090084,2.0573746042587535 L62.90456566295309,3.475041225656319 C62.374769209105025,3.1964687805364527 61.80426810574437,2.9853134111760666 61.205146545693424,2.849207239359634 L60.38914552494052,0.3204308882261052 C60.157637830823575,0.3032586142118209 59.92613013670544,0.28481431990022277 59.69017037154602,0.28481431990022277 S59.22333892241933,0.30262260406307107 58.991195218152484,0.3204308882261052 L58.182826319186574,2.82694688415587 C57.56780450541777,2.958600984931864 56.98458319908303,3.1723003948867508 56.44143053211363,3.4540528907499715 L54.21793905234462,2.0573746042587535 C53.83951301388278,2.330222958040495 53.479531269731055,2.6266036873232403 53.14626195182717,2.9516048732962843 L54.13207768227127,5.376075560047143 C53.74792755247287,5.868983425270626 53.42610641724522,6.41213609223938 53.18442256074725,6.997901439169512 L50.60858145861181,7.354067122427676 C50.495371652148094,7.8011822569466425 50.40378619073746,8.255929513249528 50.35735744988105,8.725941013120709 L52.66925434032186,9.948988529023566 C52.695330756416396,10.593266809631725 52.80218046139261,11.217192765482327 52.991075475551526,11.804866142858474 L51.247135647880455,13.733248913642452 C51.45002288530854,14.153651621916845 51.675806488090416,14.561970137366405 51.93720665919676,14.944848246869077 L54.50477962939668,14.393427447967463 C54.92581834781892,14.851354755013801 55.40536999992331,15.252677158827927 55.934530443617405,15.584674456436488 L55.83722089087166,18.212032380614684 C56.258895619445724,18.4021994150687 56.69710661188192,18.56120195223751 57.14867381744327,18.688403981972694 L58.773043737159625,16.600382663871148 C59.06115633450973,16.637271252494358 59.353084992749956,16.662075648292703 59.650737742330406,16.662075648292703 C59.973194887707194,16.662075648292703 60.28865592145178,16.63281918145354 60.59902887400756,16.5902065014924 L62.231666925653506,18.68967600227011 C62.6838701413639,18.562473972534924 63.12144512365252,18.40347143536607 63.54311985222202,18.21330440091211 L63.443902269028285,15.53888172573192 C63.94825831692849,15.212608519461451 64.40554961382404,14.822098288174718 64.80878004808785,14.380707244994062 L67.44313408390177,14.94612026716645 C67.70453425500598,14.563242157663804 67.93031785778658,14.155559652362832 68.1332050952157,13.73452093393971 L66.33266036431291,11.743173158436942 C66.50565512475436,11.18666427834604 66.6023286673534,10.598990900969744 66.63031311389186,9.992873229282138 zM62.65079761363184,13.034909770396743 L61.5155194982444,13.77395356315762 L60.817180355001376,12.701004442342144 C60.45401856010676,12.84092667505073 60.06287231867252,12.925516024824525 59.650737742330406,12.925516024824525 C57.85019301142928,12.925516024824525 56.391185730367496,11.46587273361444 56.391185730367496,9.665964012863027 C56.391185730367496,7.865419281962781 57.85019301142928,6.406412000901287 59.650737742330406,6.406412000901287 C61.45064646308147,6.406412000901287 62.91028975429168,7.865419281962781 62.91028975429168,9.665964012863027 C62.91028975429168,10.565282363089986 62.5458559390989,11.378739343245865 61.956910541427575,11.968956761216747 L62.65079761363184,13.034909770396743 z" style="color: rgb(0, 0, 0);" class="" fill-opacity="1"/><path fill="#ffffff" fill-opacity="1" stroke="#ffffff" stroke-opacity="1" stroke-width="0" stroke-dasharray="none" stroke-linejoin="round" stroke-linecap="butt" stroke-dashoffset="" fill-rule="nonzero" opacity="1" marker-start="" marker-mid="" marker-end="" d="M90.08955199346678,9.470149049313736 C90.08955199346678,4.295745089684741 94.51619111582549,0.1044778823852539 99.98117768663874,0.1044778823852539 C105.44616425745198,0.1044778823852539 109.8728033798107,4.295745089684741 109.8728033798107,9.470149049313736 C109.8728033798107,14.64455300894273 105.44616425745198,18.83582021624222 99.98117768663874,18.83582021624222 C94.51619111582549,18.83582021624222 90.08955199346678,14.64455300894273 90.08955199346678,9.470149049313736 z" id="svg_8" class="selected"/></g></svg>